<?xml version="1.0" encoding="UTF-8"?>
<!DOCTYPE svg PUBLIC "-//W3C//DTD SVG 1.1//EN" "http://www.w3.org/Graphics/SVG/1.1/DTD/svg11.dtd">
<svg xmlns="http://www.w3.org/2000/svg" version="1.1" width="500px" height="500px" style="shape-rendering:geometricPrecision; text-rendering:geometricPrecision; image-rendering:optimizeQuality; fill-rule:evenodd; clip-rule:evenodd" xmlns:xlink="http://www.w3.org/1999/xlink">
<g><path style="opacity:1" fill="#f39f24" d="M 300.5,63.5 C 323.124,68.6479 343.457,78.3146 361.5,92.5C 357.425,91.9637 354.092,90.1304 351.5,87C 348.139,86.6633 344.806,86.1633 341.5,85.5C 339.591,86.5287 337.258,87.8621 334.5,89.5C 332.833,88.5 331.5,87.1667 330.5,85.5C 329.667,86.5 328.833,87.5 328,88.5C 326.734,84.9561 324.734,81.9561 322,79.5C 320.869,80.6039 320.035,80.2705 319.5,78.5C 317.257,77.5258 314.924,77.1924 312.5,77.5C 312.034,75.7988 312.034,74.2988 312.5,73C 310.043,72.0842 307.709,70.9175 305.5,69.5C 304.353,69.8178 303.519,70.4844 303,71.5C 301.839,69.3352 300.006,68.3352 297.5,68.5C 295.202,68.732 293.035,69.3986 291,70.5C 284.513,69.2236 278.013,69.2236 271.5,70.5C 271.709,71.086 272.043,71.586 272.5,72C 280.344,72.171 288.011,72.671 295.5,73.5C 265.167,73.5 234.833,73.5 204.5,73.5C 204.611,72.8826 204.944,72.3826 205.5,72C 211.899,70.8912 217.899,69.5579 223.5,68C 220.833,67.6667 218.167,67.3333 215.5,67C 216.833,66.6667 218.167,66.3333 219.5,66C 227.147,66.1862 234.814,66.3529 242.5,66.5C 258.485,63.9611 274.485,64.1278 290.5,67C 289.5,66 288.5,65 287.5,64C 282.136,63.8295 276.802,63.3295 271.5,62.5C 274.833,62.1667 278.167,61.8333 281.5,61.5C 288.015,61.4698 294.349,62.1365 300.5,63.5 Z"/></g>
<g><path style="opacity:1" fill="#f7a51d" d="M 300.5,63.5 C 294.349,62.1365 288.015,61.4698 281.5,61.5C 278.167,61.8333 274.833,62.1667 271.5,62.5C 276.802,63.3295 282.136,63.8295 287.5,64C 288.5,65 289.5,66 290.5,67C 274.485,64.1278 258.485,63.9611 242.5,66.5C 234.814,66.3529 227.147,66.1862 219.5,66C 218.167,66.3333 216.833,66.6667 215.5,67C 218.167,67.3333 220.833,67.6667 223.5,68C 217.899,69.5579 211.899,70.8912 205.5,72C 204.944,72.3826 204.611,72.8826 204.5,73.5C 204.371,75.2161 204.038,76.8828 203.5,78.5C 201.923,85.5711 199.59,92.2378 196.5,98.5C 196.649,97.448 196.483,96.448 196,95.5C 194.633,96.5243 193.8,96.0243 193.5,94C 196.376,91.2727 196.042,89.106 192.5,87.5C 190.18,95.1108 188.014,102.777 186,110.5C 182.987,113.531 181.321,117.198 181,121.5C 180.311,122.357 179.478,123.023 178.5,123.5C 176.904,119.1 176.071,114.767 176,110.5C 175.056,111.263 174.556,112.263 174.5,113.5C 175.156,115.453 175.489,117.453 175.5,119.5C 174.448,119.351 173.448,119.517 172.5,120C 176.4,122.951 176.067,125.618 171.5,128C 176.425,128.929 176.758,130.596 172.5,133C 170.866,133.494 169.199,133.66 167.5,133.5C 167.5,135.5 167.5,137.5 167.5,139.5C 169.75,139.181 171.75,139.681 173.5,141C 170.609,142.792 167.609,144.292 164.5,145.5C 164.318,147.591 164.652,149.591 165.5,151.5C 164.443,151.906 163.109,151.906 161.5,151.5C 161.167,154.167 160.833,156.833 160.5,159.5C 158.833,159.5 157.167,159.5 155.5,159.5C 154.454,163.084 153.621,166.75 153,170.5C 152.667,169.5 152.333,168.5 152,167.5C 149.544,169.321 146.711,169.988 143.5,169.5C 143.607,171.903 142.607,173.736 140.5,175C 136.019,174.984 133.685,177.151 133.5,181.5C 131.226,181.715 129.059,182.382 127,183.5C 125.674,183.245 124.674,182.578 124,181.5C 122.89,183.037 121.39,183.703 119.5,183.5C 119.5,185.167 119.5,186.833 119.5,188.5C 116.412,188.639 113.745,189.639 111.5,191.5C 111.719,192.675 111.386,193.675 110.5,194.5C 106.878,196.481 103.212,198.148 99.5,199.5C 99.2774,203.625 97.7774,204.291 95,201.5C 93.3375,203.158 92.5041,205.158 92.5,207.5C 90.1432,207.337 87.8098,207.503 85.5,208C 84.6198,209.356 84.2865,210.856 84.5,212.5C 81.5379,212.955 78.8713,214.121 76.5,216C 75.6667,218.167 74.1667,219.667 72,220.5C 71.5045,222.473 71.3379,224.473 71.5,226.5C 68.2893,226.988 65.456,226.321 63,224.5C 60.8398,228.972 60.6731,233.305 62.5,237.5C 62.263,240.063 61.763,240.063 61,237.5C 60.6174,238.056 60.1174,238.389 59.5,238.5C 59.361,231.056 60.1944,223.723 62,216.5C 63.6714,205.54 66.1714,194.874 69.5,184.5C 90.7383,126.096 130.738,86.5956 189.5,66C 226.4,54.3977 263.4,53.5644 300.5,63.5 Z"/></g>
<g><path style="opacity:1" fill="#fde8c1" d="M 204.5,73.5 C 234.833,73.5 265.167,73.5 295.5,73.5C 295.5,73.8333 295.5,74.1667 295.5,74.5C 265.5,74.5 235.5,74.5 205.5,74.5C 205.771,76.3797 205.104,77.713 203.5,78.5C 204.038,76.8828 204.371,75.2161 204.5,73.5 Z"/></g>
<g><path style="opacity:1" fill="#fcfcfa" d="M 295.5,74.5 C 296.129,77.3973 297.129,80.064 298.5,82.5C 301.441,95.9583 305.441,108.958 310.5,121.5C 313.63,134.532 317.63,147.198 322.5,159.5C 326.033,173.296 330.033,186.962 334.5,200.5C 334.149,205.972 334.815,211.305 336.5,216.5C 336.392,217.442 336.059,218.275 335.5,219C 329.968,221.616 324.801,224.783 320,228.5C 319.586,228.043 319.086,227.709 318.5,227.5C 313.8,229.808 308.966,232.141 304,234.5C 302.951,233.483 301.784,233.316 300.5,234C 297.966,235.849 295.3,237.515 292.5,239C 288.215,240.474 283.882,241.641 279.5,242.5C 279.532,240.381 278.532,239.048 276.5,238.5C 274.396,228.829 271.23,219.496 267,210.5C 266.667,207.167 266.333,203.833 266,200.5C 264.982,201.706 264.482,201.373 264.5,199.5C 265.583,197.125 265.583,194.792 264.5,192.5C 263.749,193.376 263.249,194.376 263,195.5C 263.153,191.553 261.986,188.219 259.5,185.5C 258.833,184.833 258.167,184.167 257.5,183.5C 256.606,177.823 254.939,172.49 252.5,167.5C 252.278,163.613 251.278,159.946 249.5,156.5C 244.487,169.538 240.487,182.871 237.5,196.5C 232.727,209.159 228.727,222.159 225.5,235.5C 222.874,240.861 220.707,246.528 219,252.5C 214.159,269.204 209.326,285.87 204.5,302.5C 202.571,305.949 201.904,309.616 202.5,313.5C 204.071,312.691 205.738,312.357 207.5,312.5C 220.348,312.271 232.348,309.271 243.5,303.5C 245.435,302.85 247.435,302.517 249.5,302.5C 257.939,300.522 266.272,298.022 274.5,295C 275.056,294.617 275.389,294.117 275.5,293.5C 283.044,290.878 290.378,287.878 297.5,284.5C 298.833,284.167 300.167,283.833 301.5,283.5C 309.947,282.694 317.614,279.861 324.5,275C 326.568,274.313 328.568,274.48 330.5,275.5C 330.833,275.167 331.167,274.833 331.5,274.5C 330.833,273.833 330.167,273.167 329.5,272.5C 332.022,271.697 334.022,270.364 335.5,268.5C 337.199,268.66 338.866,268.494 340.5,268C 346.725,263.72 353.391,260.22 360.5,257.5C 361.604,258.631 361.271,259.465 359.5,260C 360.593,261.365 361.926,261.699 363.5,261C 363.815,258.902 363.815,256.902 363.5,255C 365.445,255.128 367.278,254.962 369,254.5C 370.333,257.167 371.667,257.167 373,254.5C 373.718,255.451 374.551,255.617 375.5,255C 373.715,253.837 371.715,253.17 369.5,253C 371.396,251.276 373.062,249.443 374.5,247.5C 382.648,241.538 390.981,235.705 399.5,230C 405.208,224.623 411.208,219.623 417.5,215C 427.033,205.341 435.699,195.175 443.5,184.5C 443.427,182.973 444.094,181.973 445.5,181.5C 448.818,177.544 451.651,173.211 454,168.5C 455.886,162.311 456.719,155.977 456.5,149.5C 457.422,142.653 457.589,135.653 457,128.5C 462.035,138.441 465.535,148.775 467.5,159.5C 469.632,190.099 460.966,217.099 441.5,240.5C 428.5,255.5 414.5,269.5 399.5,282.5C 390.286,289.866 380.619,296.699 370.5,303C 369.941,303.725 369.608,304.558 369.5,305.5C 377.544,331.289 385.544,356.956 393.5,382.5C 395.906,389.384 397.906,396.384 399.5,403.5C 389.539,404.424 379.539,404.758 369.5,404.5C 363.5,404.5 357.5,404.5 351.5,404.5C 342.161,404.666 332.827,404.5 323.5,404C 322.901,402.378 322.234,400.878 321.5,399.5C 318.688,388.576 315.355,377.909 311.5,367.5C 309.908,360.389 307.908,353.389 305.5,346.5C 303.3,339.901 301.3,333.234 299.5,326.5C 296.934,325.394 294.6,325.727 292.5,327.5C 258.822,339.336 224.489,348.836 189.5,356C 185.891,364.215 183.225,372.715 181.5,381.5C 181.5,381.833 181.5,382.167 181.5,382.5C 176.265,396.876 171.598,411.543 167.5,426.5C 141.003,427.664 114.336,427.83 87.5,427C 87.0426,426.586 86.7093,426.086 86.5,425.5C 90.8358,411.487 95.1691,397.487 99.5,383.5C 101.101,380.45 102.101,377.116 102.5,373.5C 104.89,370.311 106.223,366.644 106.5,362.5C 98.4551,362.328 90.4551,361.661 82.5,360.5C 64.5434,359.933 49.3767,353.267 37,340.5C 35.1207,338.473 33.954,336.14 33.5,333.5C 33.6107,332.883 33.944,332.383 34.5,332C 32.7148,326.171 30.7148,320.337 28.5,314.5C 29.5,314.5 30.5,314.5 31.5,314.5C 36.6587,317.107 41.992,319.107 47.5,320.5C 56.0331,323.14 64.6998,325.14 73.5,326.5C 75.2922,327.309 77.2922,327.809 79.5,328C 93.9117,328.407 108.245,328.574 122.5,328.5C 124.171,326.49 124.838,324.157 124.5,321.5C 124.661,318.32 125.661,315.653 127.5,313.5C 128.117,313.389 128.617,313.056 129,312.5C 131.666,303.839 134.333,295.172 137,286.5C 137.667,285.833 138.333,285.167 139,284.5C 139.54,286.135 139.04,287.468 137.5,288.5C 137.808,289.308 138.308,289.975 139,290.5C 141.759,287.191 142.259,283.524 140.5,279.5C 141.985,272.084 143.651,264.75 145.5,257.5C 145.517,255.435 145.85,253.435 146.5,251.5C 151.945,238.591 156.278,225.258 159.5,211.5C 164.103,199.776 168.103,187.776 171.5,175.5C 174.245,170.241 176.245,164.574 177.5,158.5C 184.399,138.696 190.733,118.696 196.5,98.5C 199.59,92.2378 201.923,85.5711 203.5,78.5C 205.104,77.713 205.771,76.3797 205.5,74.5C 235.5,74.5 265.5,74.5 295.5,74.5 Z"/></g>
<g><path style="opacity:1" fill="#f5991e" d="M 361.5,92.5 C 367.677,96.0971 373.343,100.43 378.5,105.5C 378.294,107.549 377.461,107.883 376,106.5C 375.683,108.301 375.016,108.634 374,107.5C 373.29,108.973 372.124,109.64 370.5,109.5C 370.649,108.448 370.483,107.448 370,106.5C 368.731,107.905 368.231,109.571 368.5,111.5C 365.687,111.548 363.021,112.215 360.5,113.5C 359.614,114.325 359.281,115.325 359.5,116.5C 356.644,117.414 354.144,119.081 352,121.5C 351.667,120.833 351.333,120.167 351,119.5C 348.617,120.766 345.95,121.432 343,121.5C 340.5,121.167 338,120.833 335.5,120.5C 336.025,119.808 336.692,119.308 337.5,119C 336.072,117.084 335.072,114.917 334.5,112.5C 332.694,113.859 331.194,113.525 330,111.5C 329.115,108.274 327.781,105.274 326,102.5C 326.715,100.831 327.049,98.4978 327,95.5C 324.821,96.2611 322.655,95.9278 320.5,94.5C 317.91,89.1245 314.91,84.1245 311.5,79.5C 310.448,79.6495 309.448,79.4828 308.5,79C 306.911,77.2546 304.911,76.088 302.5,75.5C 303.804,73.9843 303.304,73.3176 301,73.5C 300.167,73.8333 299.333,74.1667 298.5,74.5C 299.127,75.4168 299.461,76.4168 299.5,77.5C 298.883,77.6107 298.383,77.944 298,78.5C 297.8,76.6803 296.966,75.347 295.5,74.5C 295.5,74.1667 295.5,73.8333 295.5,73.5C 288.011,72.671 280.344,72.171 272.5,72C 272.043,71.586 271.709,71.086 271.5,70.5C 278.013,69.2236 284.513,69.2236 291,70.5C 293.035,69.3986 295.202,68.732 297.5,68.5C 300.006,68.3352 301.839,69.3352 303,71.5C 303.519,70.4844 304.353,69.8178 305.5,69.5C 307.709,70.9175 310.043,72.0842 312.5,73C 312.034,74.2988 312.034,75.7988 312.5,77.5C 314.924,77.1924 317.257,77.5258 319.5,78.5C 320.035,80.2705 320.869,80.6039 322,79.5C 324.734,81.9561 326.734,84.9561 328,88.5C 328.833,87.5 329.667,86.5 330.5,85.5C 331.5,87.1667 332.833,88.5 334.5,89.5C 337.258,87.8621 339.591,86.5287 341.5,85.5C 344.806,86.1633 348.139,86.6633 351.5,87C 354.092,90.1304 357.425,91.9637 361.5,92.5 Z"/></g>
<g><path style="opacity:0.906" fill="#eecb8a" d="M 423.5,93.5 C 421.821,93.2852 420.821,93.9519 420.5,95.5C 417.065,93.9472 413.732,92.1139 410.5,90C 415.359,89.4637 419.693,90.6303 423.5,93.5 Z"/></g>
<g><path style="opacity:1" fill="#f5b139" d="M 423.5,93.5 C 436.927,98.2634 446.927,106.93 453.5,119.5C 452.662,119.842 452.328,120.508 452.5,121.5C 443.942,110.28 433.276,101.613 420.5,95.5C 420.821,93.9519 421.821,93.2852 423.5,93.5 Z"/></g>
<g><path style="opacity:1" fill="#eac695" d="M 453.5,119.5 C 461.524,131.569 466.191,144.902 467.5,159.5C 465.535,148.775 462.035,138.441 457,128.5C 457.589,135.653 457.422,142.653 456.5,149.5C 456.167,149.5 455.833,149.5 455.5,149.5C 456.12,139.958 455.12,130.625 452.5,121.5C 452.328,120.508 452.662,119.842 453.5,119.5 Z"/></g>
<g><path style="opacity:1" fill="#f59f1d" d="M 196.5,98.5 C 190.733,118.696 184.399,138.696 177.5,158.5C 174.675,159.274 172.508,160.941 171,163.5C 169.484,167.105 168.151,170.772 167,174.5C 165.301,175.406 163.467,175.739 161.5,175.5C 161.105,178.523 162.105,179.523 164.5,178.5C 164.833,179.333 165.167,180.167 165.5,181C 163.904,184.694 162.738,188.528 162,192.5C 161.692,193.308 161.192,193.975 160.5,194.5C 159.575,193.359 158.741,193.359 158,194.5C 156.931,197.208 155.764,199.875 154.5,202.5C 150.368,204.951 148.202,208.618 148,213.5C 147.586,213.957 147.086,214.291 146.5,214.5C 145.416,213.335 144.583,212.002 144,210.5C 143.667,210.833 143.333,211.167 143,211.5C 139.771,220.808 136.605,230.141 133.5,239.5C 128.833,239.5 124.167,239.5 119.5,239.5C 118.081,243.779 115.581,247.446 112,250.5C 111.53,252.774 110.53,254.774 109,256.5C 108.667,255.833 108.333,255.167 108,254.5C 104.965,255.184 102.631,256.851 101,259.5C 100,258.5 99,257.5 98,256.5C 97.0922,258.439 95.5922,259.439 93.5,259.5C 92.7191,263.776 90.0525,266.276 85.5,267C 84.1198,268.324 83.7865,269.657 84.5,271C 83.2341,271.309 82.0674,271.809 81,272.5C 80.6667,272.167 80.3333,271.833 80,271.5C 79.5172,272.448 79.3505,273.448 79.5,274.5C 74.0145,276.978 68.3478,278.978 62.5,280.5C 63.0521,282.333 63.8855,284 65,285.5C 65.7253,283.842 66.892,283.342 68.5,284C 67.9389,285.676 66.9389,287.009 65.5,288C 66.7111,289.113 66.7111,290.28 65.5,291.5C 67.2078,296.275 68.0411,301.275 68,306.5C 68.2896,308.044 68.9563,309.377 70,310.5C 71.016,309.366 71.6827,309.699 72,311.5C 72.8926,310.919 73.8926,310.585 75,310.5C 78.404,311.302 81.7373,312.302 85,313.5C 94.9466,312.534 104.447,312.534 113.5,313.5C 115.104,313.061 116.604,312.394 118,311.5C 119.584,311.988 120.751,312.988 121.5,314.5C 122.288,313.23 123.288,312.23 124.5,311.5C 124.435,314.428 123.768,317.095 122.5,319.5C 120.946,318.086 119.612,316.419 118.5,314.5C 117.833,315.833 117.167,317.167 116.5,318.5C 115.713,317.758 115.047,316.925 114.5,316C 106.639,315.028 98.9719,315.528 91.5,317.5C 87.1112,317.077 82.7779,316.41 78.5,315.5C 76.4872,316.596 74.6539,316.263 73,314.5C 72.228,314.645 71.5613,314.978 71,315.5C 70.0978,313.569 68.9312,311.903 67.5,310.5C 65.8527,305.244 64.5193,299.911 63.5,294.5C 61.92,282.86 60.42,271.193 59,259.5C 58.1787,252.321 58.3454,245.321 59.5,238.5C 60.1174,238.389 60.6174,238.056 61,237.5C 61.763,240.063 62.263,240.063 62.5,237.5C 60.6731,233.305 60.8398,228.972 63,224.5C 65.456,226.321 68.2893,226.988 71.5,226.5C 71.3379,224.473 71.5045,222.473 72,220.5C 74.1667,219.667 75.6667,218.167 76.5,216C 78.8713,214.121 81.5379,212.955 84.5,212.5C 84.2865,210.856 84.6198,209.356 85.5,208C 87.8098,207.503 90.1432,207.337 92.5,207.5C 92.5041,205.158 93.3375,203.158 95,201.5C 97.7774,204.291 99.2774,203.625 99.5,199.5C 103.212,198.148 106.878,196.481 110.5,194.5C 111.386,193.675 111.719,192.675 111.5,191.5C 113.745,189.639 116.412,188.639 119.5,188.5C 119.5,186.833 119.5,185.167 119.5,183.5C 121.39,183.703 122.89,183.037 124,181.5C 124.674,182.578 125.674,183.245 127,183.5C 129.059,182.382 131.226,181.715 133.5,181.5C 133.685,177.151 136.019,174.984 140.5,175C 142.607,173.736 143.607,171.903 143.5,169.5C 146.711,169.988 149.544,169.321 152,167.5C 152.333,168.5 152.667,169.5 153,170.5C 153.621,166.75 154.454,163.084 155.5,159.5C 157.167,159.5 158.833,159.5 160.5,159.5C 160.833,156.833 161.167,154.167 161.5,151.5C 163.109,151.906 164.443,151.906 165.5,151.5C 164.652,149.591 164.318,147.591 164.5,145.5C 167.609,144.292 170.609,142.792 173.5,141C 171.75,139.681 169.75,139.181 167.5,139.5C 167.5,137.5 167.5,135.5 167.5,133.5C 169.199,133.66 170.866,133.494 172.5,133C 176.758,130.596 176.425,128.929 171.5,128C 176.067,125.618 176.4,122.951 172.5,120C 173.448,119.517 174.448,119.351 175.5,119.5C 175.489,117.453 175.156,115.453 174.5,113.5C 174.556,112.263 175.056,111.263 176,110.5C 176.071,114.767 176.904,119.1 178.5,123.5C 179.478,123.023 180.311,122.357 181,121.5C 181.321,117.198 182.987,113.531 186,110.5C 188.014,102.777 190.18,95.1108 192.5,87.5C 196.042,89.106 196.376,91.2727 193.5,94C 193.8,96.0243 194.633,96.5243 196,95.5C 196.483,96.448 196.649,97.448 196.5,98.5 Z"/></g>
<g><path style="opacity:1" fill="#f18721" d="M 295.5,74.5 C 296.966,75.347 297.8,76.6803 298,78.5C 298.383,77.944 298.883,77.6107 299.5,77.5C 301.097,78.7373 302.263,80.404 303,82.5C 303.333,82.1667 303.667,81.8333 304,81.5C 308.532,84.8892 311.865,89.2225 314,94.5C 315.011,95.3366 316.178,95.67 317.5,95.5C 317.336,98.1873 317.503,100.854 318,103.5C 323.37,119.363 330.37,134.363 339,148.5C 339.333,147.833 339.667,147.167 340,146.5C 341.921,151.605 345.421,154.605 350.5,155.5C 350.5,156.833 350.5,158.167 350.5,159.5C 354.167,159.5 357.833,159.5 361.5,159.5C 361.5,155.5 363.5,153.5 367.5,153.5C 368.446,158.36 370.446,158.693 373.5,154.5C 373.532,152.511 374.365,150.511 376,148.5C 376.333,149.5 376.667,150.5 377,151.5C 378.359,149.308 380.192,147.641 382.5,146.5C 383.221,144.314 383.887,142.147 384.5,140C 386.81,139.503 389.143,139.337 391.5,139.5C 391.5,138.5 391.5,137.5 391.5,136.5C 394.564,136.144 397.231,136.977 399.5,139C 399.167,139.333 398.833,139.667 398.5,140C 399.448,140.483 400.448,140.649 401.5,140.5C 401.201,138.396 401.534,136.396 402.5,134.5C 403.518,135.193 404.518,135.859 405.5,136.5C 415.736,148.963 423.403,162.963 428.5,178.5C 428.005,180.824 428.005,182.991 428.5,185C 426.799,186.86 425.799,189.027 425.5,191.5C 424.127,191.343 422.793,191.51 421.5,192C 406.148,208.451 388.814,222.451 369.5,234C 367.192,236.128 365.526,238.628 364.5,241.5C 364.167,241.5 363.833,241.5 363.5,241.5C 360.833,242.167 358.167,242.833 355.5,243.5C 355.554,241.368 356.554,240.035 358.5,239.5C 365.281,231.729 373.281,225.395 382.5,220.5C 389.086,213.749 396.42,207.916 404.5,203C 407.953,198.378 411.953,194.212 416.5,190.5C 417.154,188.885 417.654,187.218 418,185.5C 421.746,183.257 424.58,180.257 426.5,176.5C 424.678,172.03 422.345,167.864 419.5,164C 418.256,163.544 417.423,164.044 417,165.5C 416.626,164.584 416.126,163.75 415.5,163C 412.854,162.503 410.187,162.336 407.5,162.5C 407.5,163.5 407.5,164.5 407.5,165.5C 402.213,164.138 399.546,166.138 399.5,171.5C 397.119,172.42 394.786,172.42 392.5,171.5C 389.134,173.971 386.301,176.971 384,180.5C 383.333,179.167 382.667,179.167 382,180.5C 382.633,186.249 380.133,189.583 374.5,190.5C 373.115,191.551 372.115,192.884 371.5,194.5C 370.311,195.429 368.978,195.762 367.5,195.5C 368.595,190.614 366.928,188.948 362.5,190.5C 364.915,192.009 365.081,193.676 363,195.5C 361.693,194.228 360.193,193.228 358.5,192.5C 358.833,191.833 359.167,191.167 359.5,190.5C 355.787,188.96 352.453,186.793 349.5,184C 350.258,182.636 349.758,181.469 348,180.5C 347.257,177.18 346.09,174.013 344.5,171C 339.02,162.364 335.02,153.197 332.5,143.5C 330.733,140.963 329.233,138.297 328,135.5C 322.473,121.003 316.806,106.67 311,92.5C 308.353,88.931 305.187,85.931 301.5,83.5C 300.893,83.6236 300.56,83.9569 300.5,84.5C 299.833,83.8333 299.167,83.1667 298.5,82.5C 297.129,80.064 296.129,77.3973 295.5,74.5 Z"/></g>
<g><path style="opacity:1" fill="#c3663b" d="M 310.5,121.5 C 312.148,123.429 313.815,125.429 315.5,127.5C 317.842,138.197 320.175,148.864 322.5,159.5C 317.63,147.198 313.63,134.532 310.5,121.5 Z"/></g>
<g><path style="opacity:1" fill="#f28f20" d="M 378.5,105.5 C 383.131,109.63 387.631,113.963 392,118.5C 396.761,124.381 401.261,130.381 405.5,136.5C 404.518,135.859 403.518,135.193 402.5,134.5C 401.534,136.396 401.201,138.396 401.5,140.5C 400.448,140.649 399.448,140.483 398.5,140C 398.833,139.667 399.167,139.333 399.5,139C 397.231,136.977 394.564,136.144 391.5,136.5C 391.5,137.5 391.5,138.5 391.5,139.5C 389.143,139.337 386.81,139.503 384.5,140C 383.887,142.147 383.221,144.314 382.5,146.5C 380.192,147.641 378.359,149.308 377,151.5C 376.667,150.5 376.333,149.5 376,148.5C 374.365,150.511 373.532,152.511 373.5,154.5C 370.446,158.693 368.446,158.36 367.5,153.5C 363.5,153.5 361.5,155.5 361.5,159.5C 357.833,159.5 354.167,159.5 350.5,159.5C 350.5,158.167 350.5,156.833 350.5,155.5C 345.421,154.605 341.921,151.605 340,146.5C 339.667,147.167 339.333,147.833 339,148.5C 330.37,134.363 323.37,119.363 318,103.5C 317.503,100.854 317.336,98.1873 317.5,95.5C 316.178,95.67 315.011,95.3366 314,94.5C 311.865,89.2225 308.532,84.8892 304,81.5C 303.667,81.8333 303.333,82.1667 303,82.5C 302.263,80.404 301.097,78.7373 299.5,77.5C 299.461,76.4168 299.127,75.4168 298.5,74.5C 299.333,74.1667 300.167,73.8333 301,73.5C 303.304,73.3176 303.804,73.9843 302.5,75.5C 304.911,76.088 306.911,77.2546 308.5,79C 309.448,79.4828 310.448,79.6495 311.5,79.5C 314.91,84.1245 317.91,89.1245 320.5,94.5C 322.655,95.9278 324.821,96.2611 327,95.5C 327.049,98.4978 326.715,100.831 326,102.5C 327.781,105.274 329.115,108.274 330,111.5C 331.194,113.525 332.694,113.859 334.5,112.5C 335.072,114.917 336.072,117.084 337.5,119C 336.692,119.308 336.025,119.808 335.5,120.5C 338,120.833 340.5,121.167 343,121.5C 345.95,121.432 348.617,120.766 351,119.5C 351.333,120.167 351.667,120.833 352,121.5C 354.144,119.081 356.644,117.414 359.5,116.5C 359.281,115.325 359.614,114.325 360.5,113.5C 363.021,112.215 365.687,111.548 368.5,111.5C 368.231,109.571 368.731,107.905 370,106.5C 370.483,107.448 370.649,108.448 370.5,109.5C 372.124,109.64 373.29,108.973 374,107.5C 375.016,108.634 375.683,108.301 376,106.5C 377.461,107.883 378.294,107.549 378.5,105.5 Z"/></g>
<g><path style="opacity:1" fill="#ef8021" d="M 358.5,239.5 C 360.312,235.875 362.146,232.209 364,228.5C 364.279,223.228 363.279,218.228 361,213.5C 360.333,212.167 359.667,212.167 359,213.5C 355.754,205.079 351.754,197.079 347,189.5C 343.657,179.608 339.49,170.108 334.5,161C 335.081,160.107 335.415,159.107 335.5,158C 333.667,154.833 331.833,151.667 330,148.5C 326.944,140.665 324.277,132.665 322,124.5C 320.603,121.646 319.103,118.98 317.5,116.5C 315.312,109.4 312.979,102.4 310.5,95.5C 305.804,93.1347 302.471,89.468 300.5,84.5C 300.56,83.9569 300.893,83.6236 301.5,83.5C 305.187,85.931 308.353,88.931 311,92.5C 316.806,106.67 322.473,121.003 328,135.5C 329.233,138.297 330.733,140.963 332.5,143.5C 335.02,153.197 339.02,162.364 344.5,171C 346.09,174.013 347.257,177.18 348,180.5C 349.758,181.469 350.258,182.636 349.5,184C 352.453,186.793 355.787,188.96 359.5,190.5C 359.167,191.167 358.833,191.833 358.5,192.5C 360.193,193.228 361.693,194.228 363,195.5C 365.081,193.676 364.915,192.009 362.5,190.5C 366.928,188.948 368.595,190.614 367.5,195.5C 368.978,195.762 370.311,195.429 371.5,194.5C 372.115,192.884 373.115,191.551 374.5,190.5C 380.133,189.583 382.633,186.249 382,180.5C 382.667,179.167 383.333,179.167 384,180.5C 386.301,176.971 389.134,173.971 392.5,171.5C 394.786,172.42 397.119,172.42 399.5,171.5C 399.546,166.138 402.213,164.138 407.5,165.5C 407.5,164.5 407.5,163.5 407.5,162.5C 410.187,162.336 412.854,162.503 415.5,163C 416.126,163.75 416.626,164.584 417,165.5C 417.423,164.044 418.256,163.544 419.5,164C 422.345,167.864 424.678,172.03 426.5,176.5C 424.58,180.257 421.746,183.257 418,185.5C 417.654,187.218 417.154,188.885 416.5,190.5C 411.953,194.212 407.953,198.378 404.5,203C 396.42,207.916 389.086,213.749 382.5,220.5C 373.281,225.395 365.281,231.729 358.5,239.5 Z"/></g>
<g><path style="opacity:1" fill="#fbecc1" d="M 455.5,149.5 C 455.833,149.5 456.167,149.5 456.5,149.5C 456.719,155.977 455.886,162.311 454,168.5C 451.651,173.211 448.818,177.544 445.5,181.5C 447.993,175.178 450.493,168.845 453,162.5C 454.153,158.213 454.987,153.879 455.5,149.5 Z"/></g>
<g><path style="opacity:1" fill="#b75d46" d="M 252.5,167.5 C 251.521,166.235 250.521,164.901 249.5,163.5C 246.967,166.637 245.8,170.303 246,174.5C 242.371,181.593 239.538,188.926 237.5,196.5C 240.487,182.871 244.487,169.538 249.5,156.5C 251.278,159.946 252.278,163.613 252.5,167.5 Z"/></g>
<g><path style="opacity:1" fill="#e4a048" d="M 171.5,175.5 C 168.103,187.776 164.103,199.776 159.5,211.5C 162.446,199.67 165.779,188.004 169.5,176.5C 170.183,176.137 170.85,175.804 171.5,175.5 Z"/></g>
<g><path style="opacity:1" fill="#d55729" d="M 256.5,183.5 C 256.662,185.527 256.495,187.527 256,189.5C 252.858,194.118 250.524,199.118 249,204.5C 242.958,228.488 236.458,252.321 229.5,276C 229.833,276.333 230.167,276.667 230.5,277C 226.953,280.929 224.62,285.429 223.5,290.5C 221.099,291.049 218.765,291.882 216.5,293C 213.536,295.81 210.202,297.976 206.5,299.5C 206.5,299.167 206.5,298.833 206.5,298.5C 210.02,294.719 214.02,291.386 218.5,288.5C 218.678,285.196 220.344,283.529 223.5,283.5C 222.373,275.497 224.039,267.997 228.5,261C 228.167,260.667 227.833,260.333 227.5,260C 229.584,255.815 231.251,251.481 232.5,247C 232.039,243.433 233.372,240.433 236.5,238C 236.043,237.586 235.709,237.086 235.5,236.5C 238.069,226.863 241.069,217.363 244.5,208C 244.167,207.667 243.833,207.333 243.5,207C 244.892,201.928 245.892,196.762 246.5,191.5C 247.5,191.5 248.5,191.5 249.5,191.5C 249.579,190.07 249.246,188.736 248.5,187.5C 249.792,185.333 250.625,183 251,180.5C 251.323,183.141 252.323,185.475 254,187.5C 254.333,186.167 254.667,184.833 255,183.5C 255.69,182.262 256.19,182.262 256.5,183.5 Z"/></g>
<g><path style="opacity:1" fill="#d96c29" d="M 298.5,82.5 C 299.167,83.1667 299.833,83.8333 300.5,84.5C 302.471,89.468 305.804,93.1347 310.5,95.5C 312.979,102.4 315.312,109.4 317.5,116.5C 317.817,121.4 318.317,126.066 319,130.5C 321.74,137.39 324.907,144.057 328.5,150.5C 332.381,164.973 337.381,179.139 343.5,193C 344.255,200.28 346.755,206.78 351,212.5C 352.432,215.002 352.598,217.502 351.5,220C 353.887,220.976 355.054,222.809 355,225.5C 356.63,233.155 355.296,240.155 351,246.5C 348.262,248.426 345.762,250.426 343.5,252.5C 339.262,254.959 334.928,257.459 330.5,260C 327.5,260.333 324.5,260.667 321.5,261C 314.841,265.047 307.841,268.214 300.5,270.5C 316.044,262.728 331.71,254.895 347.5,247C 348.337,245.989 348.67,244.822 348.5,243.5C 348.5,242.5 348.5,241.5 348.5,240.5C 349.5,240.5 350.5,240.5 351.5,240.5C 352.135,237.507 352.301,234.507 352,231.5C 350.506,226.12 348.006,221.12 344.5,216.5C 343.786,213.973 343.12,211.473 342.5,209C 342.833,208.667 343.167,208.333 343.5,208C 340.723,202.835 339.056,197.335 338.5,191.5C 336.821,191.715 335.821,191.048 335.5,189.5C 335.628,187.345 335.128,185.345 334,183.5C 333.667,184.167 333.333,184.833 333,185.5C 332,184.5 331,183.5 330,182.5C 327.945,174.588 325.445,166.921 322.5,159.5C 320.175,148.864 317.842,138.197 315.5,127.5C 313.815,125.429 312.148,123.429 310.5,121.5C 305.441,108.958 301.441,95.9583 298.5,82.5 Z"/></g>
<g><path style="opacity:1" fill="#f5971e" d="M 428.5,178.5 C 429.82,180.463 431.154,182.463 432.5,184.5C 429.962,190.532 426.129,195.532 421,199.5C 419.729,202.433 418.062,205.099 416,207.5C 413.557,206.715 411.057,206.881 408.5,208C 405.658,210.838 402.991,213.838 400.5,217C 388.858,225.615 376.858,233.782 364.5,241.5C 365.526,238.628 367.192,236.128 369.5,234C 388.814,222.451 406.148,208.451 421.5,192C 422.793,191.51 424.127,191.343 425.5,191.5C 425.799,189.027 426.799,186.86 428.5,185C 428.005,182.991 428.005,180.824 428.5,178.5 Z"/></g>
<g><path style="opacity:1" fill="#c16038" d="M 322.5,159.5 C 325.445,166.921 327.945,174.588 330,182.5C 331,183.5 332,184.5 333,185.5C 333.333,184.833 333.667,184.167 334,183.5C 335.128,185.345 335.628,187.345 335.5,189.5C 334.182,194.379 335.349,198.712 339,202.5C 339.877,209.588 341.044,216.588 342.5,223.5C 341.833,222.5 341.167,221.5 340.5,220.5C 340.405,218.214 339.738,216.214 338.5,214.5C 337.739,209.563 336.405,204.897 334.5,200.5C 330.033,186.962 326.033,173.296 322.5,159.5 Z"/></g>
<g><path style="opacity:1" fill="#f4981e" d="M 177.5,158.5 C 176.245,164.574 174.245,170.241 171.5,175.5C 170.85,175.804 170.183,176.137 169.5,176.5C 165.779,188.004 162.446,199.67 159.5,211.5C 156.278,225.258 151.945,238.591 146.5,251.5C 145.883,251.611 145.383,251.944 145,252.5C 142.042,260.951 139.209,269.451 136.5,278C 133.565,281.525 132.065,285.692 132,290.5C 131.751,289.376 131.251,288.376 130.5,287.5C 129.262,290.383 127.928,293.217 126.5,296C 127.573,297.313 128.24,298.813 128.5,300.5C 127.892,303.145 127.392,305.812 127,308.5C 125.583,309.078 124.75,310.078 124.5,311.5C 123.288,312.23 122.288,313.23 121.5,314.5C 120.751,312.988 119.584,311.988 118,311.5C 116.604,312.394 115.104,313.061 113.5,313.5C 104.447,312.534 94.9466,312.534 85,313.5C 81.7373,312.302 78.404,311.302 75,310.5C 73.8926,310.585 72.8926,310.919 72,311.5C 71.6827,309.699 71.016,309.366 70,310.5C 68.9563,309.377 68.2896,308.044 68,306.5C 68.0411,301.275 67.2078,296.275 65.5,291.5C 66.7111,290.28 66.7111,289.113 65.5,288C 66.9389,287.009 67.9389,285.676 68.5,284C 66.892,283.342 65.7253,283.842 65,285.5C 63.8855,284 63.0521,282.333 62.5,280.5C 68.3478,278.978 74.0145,276.978 79.5,274.5C 79.3505,273.448 79.5172,272.448 80,271.5C 80.3333,271.833 80.6667,272.167 81,272.5C 82.0674,271.809 83.2341,271.309 84.5,271C 83.7865,269.657 84.1198,268.324 85.5,267C 90.0525,266.276 92.7191,263.776 93.5,259.5C 95.5922,259.439 97.0922,258.439 98,256.5C 99,257.5 100,258.5 101,259.5C 102.631,256.851 104.965,255.184 108,254.5C 108.333,255.167 108.667,255.833 109,256.5C 110.53,254.774 111.53,252.774 112,250.5C 115.581,247.446 118.081,243.779 119.5,239.5C 124.167,239.5 128.833,239.5 133.5,239.5C 136.605,230.141 139.771,220.808 143,211.5C 143.333,211.167 143.667,210.833 144,210.5C 144.583,212.002 145.416,213.335 146.5,214.5C 147.086,214.291 147.586,213.957 148,213.5C 148.202,208.618 150.368,204.951 154.5,202.5C 155.764,199.875 156.931,197.208 158,194.5C 158.741,193.359 159.575,193.359 160.5,194.5C 161.192,193.975 161.692,193.308 162,192.5C 162.738,188.528 163.904,184.694 165.5,181C 165.167,180.167 164.833,179.333 164.5,178.5C 162.105,179.523 161.105,178.523 161.5,175.5C 163.467,175.739 165.301,175.406 167,174.5C 168.151,170.772 169.484,167.105 171,163.5C 172.508,160.941 174.675,159.274 177.5,158.5 Z"/></g>
<g><path style="opacity:1" fill="#e77624" d="M 317.5,116.5 C 319.103,118.98 320.603,121.646 322,124.5C 324.277,132.665 326.944,140.665 330,148.5C 331.833,151.667 333.667,154.833 335.5,158C 335.415,159.107 335.081,160.107 334.5,161C 339.49,170.108 343.657,179.608 347,189.5C 351.754,197.079 355.754,205.079 359,213.5C 359.667,212.167 360.333,212.167 361,213.5C 363.279,218.228 364.279,223.228 364,228.5C 362.146,232.209 360.312,235.875 358.5,239.5C 356.554,240.035 355.554,241.368 355.5,243.5C 354.766,244.708 354.433,246.041 354.5,247.5C 350.623,248.711 346.957,250.378 343.5,252.5C 345.762,250.426 348.262,248.426 351,246.5C 355.296,240.155 356.63,233.155 355,225.5C 355.054,222.809 353.887,220.976 351.5,220C 352.598,217.502 352.432,215.002 351,212.5C 346.755,206.78 344.255,200.28 343.5,193C 337.381,179.139 332.381,164.973 328.5,150.5C 324.907,144.057 321.74,137.39 319,130.5C 318.317,126.066 317.817,121.4 317.5,116.5 Z"/></g>
<g><path style="opacity:1" fill="#e17a31" d="M 257.5,183.5 C 258.167,184.167 258.833,184.833 259.5,185.5C 265.291,209.205 272.291,232.538 280.5,255.5C 280.995,259.647 281.995,263.647 283.5,267.5C 283.5,267.833 283.5,268.167 283.5,268.5C 283.5,269.5 283.5,270.5 283.5,271.5C 282.504,271.586 281.671,271.252 281,270.5C 279.419,262.228 277.752,253.895 276,245.5C 273.305,242.352 271.972,238.685 272,234.5C 270.823,232.824 269.323,231.491 267.5,230.5C 266.638,225.284 264.305,220.951 260.5,217.5C 263.39,215.205 264.223,212.205 263,208.5C 260.915,207.353 259.415,208.02 258.5,210.5C 254.5,209.167 254.5,207.833 258.5,206.5C 260.405,203.987 260.739,201.321 259.5,198.5C 258.479,199.901 257.479,201.235 256.5,202.5C 258.573,196.252 258.906,189.918 257.5,183.5 Z"/></g>
<g><path style="opacity:1" fill="#f3a423" d="M 432.5,184.5 C 434.581,185.623 436.747,186.623 439,187.5C 440.643,186.685 442.143,185.685 443.5,184.5C 435.699,195.175 427.033,205.341 417.5,215C 411.208,219.623 405.208,224.623 399.5,230C 390.981,235.705 382.648,241.538 374.5,247.5C 371.833,248.5 369.167,249.5 366.5,250.5C 364.234,250.141 362.401,250.808 361,252.5C 354.011,250.693 353.844,248.36 360.5,245.5C 361.389,243.993 362.389,242.66 363.5,241.5C 363.833,241.5 364.167,241.5 364.5,241.5C 376.858,233.782 388.858,225.615 400.5,217C 402.991,213.838 405.658,210.838 408.5,208C 411.057,206.881 413.557,206.715 416,207.5C 418.062,205.099 419.729,202.433 421,199.5C 426.129,195.532 429.962,190.532 432.5,184.5 Z"/></g>
<g><path style="opacity:1" fill="#ed7722" d="M 283.5,271.5 C 283.297,273.39 283.963,274.89 285.5,276C 285.272,276.399 284.938,276.565 284.5,276.5C 282.94,276.519 281.44,276.852 280,277.5C 278.604,276.606 277.104,275.939 275.5,275.5C 253.954,281.548 233.287,289.715 213.5,300C 210.937,301.079 208.271,301.579 205.5,301.5C 205.328,300.508 205.662,299.842 206.5,299.5C 210.202,297.976 213.536,295.81 216.5,293C 218.765,291.882 221.099,291.049 223.5,290.5C 230.212,286.313 234.712,280.313 237,272.5C 239.256,259.055 242.756,245.888 247.5,233C 249.51,222.778 252.51,212.611 256.5,202.5C 257.479,201.235 258.479,199.901 259.5,198.5C 260.739,201.321 260.405,203.987 258.5,206.5C 254.5,207.833 254.5,209.167 258.5,210.5C 259.415,208.02 260.915,207.353 263,208.5C 264.223,212.205 263.39,215.205 260.5,217.5C 264.305,220.951 266.638,225.284 267.5,230.5C 269.323,231.491 270.823,232.824 272,234.5C 271.972,238.685 273.305,242.352 276,245.5C 277.752,253.895 279.419,262.228 281,270.5C 281.671,271.252 282.504,271.586 283.5,271.5 Z"/></g>
<g><path style="opacity:1" fill="#b54c40" d="M 237.5,196.5 C 235.478,210.294 231.478,223.294 225.5,235.5C 228.727,222.159 232.727,209.159 237.5,196.5 Z"/></g>
<g><path style="opacity:1" fill="#e06527" d="M 256.5,183.5 C 256.833,183.5 257.167,183.5 257.5,183.5C 258.906,189.918 258.573,196.252 256.5,202.5C 252.51,212.611 249.51,222.778 247.5,233C 242.756,245.888 239.256,259.055 237,272.5C 234.712,280.313 230.212,286.313 223.5,290.5C 224.62,285.429 226.953,280.929 230.5,277C 230.167,276.667 229.833,276.333 229.5,276C 236.458,252.321 242.958,228.488 249,204.5C 250.524,199.118 252.858,194.118 256,189.5C 256.495,187.527 256.662,185.527 256.5,183.5 Z"/></g>
<g><path style="opacity:1" fill="#d05d2b" d="M 335.5,189.5 C 335.821,191.048 336.821,191.715 338.5,191.5C 339.056,197.335 340.723,202.835 343.5,208C 343.167,208.333 342.833,208.667 342.5,209C 343.12,211.473 343.786,213.973 344.5,216.5C 348.006,221.12 350.506,226.12 352,231.5C 352.301,234.507 352.135,237.507 351.5,240.5C 350.5,240.5 349.5,240.5 348.5,240.5C 348.5,241.5 348.5,242.5 348.5,243.5C 348.167,243.5 347.833,243.5 347.5,243.5C 345.424,236.937 343.757,230.271 342.5,223.5C 341.044,216.588 339.877,209.588 339,202.5C 335.349,198.712 334.182,194.379 335.5,189.5 Z"/></g>
<g><path style="opacity:1" fill="#f9f4ec" d="M 334.5,200.5 C 336.405,204.897 337.739,209.563 338.5,214.5C 339.612,219.838 339.612,225.171 338.5,230.5C 336.057,229.68 333.891,230.347 332,232.5C 331.667,232.167 331.333,231.833 331,231.5C 315.354,238.399 300.521,245.066 286.5,251.5C 285.833,249.5 285.167,247.5 284.5,245.5C 283.548,247.045 283.215,248.712 283.5,250.5C 282.178,250.67 281.011,250.337 280,249.5C 278.726,245.846 277.56,242.18 276.5,238.5C 278.532,239.048 279.532,240.381 279.5,242.5C 283.882,241.641 288.215,240.474 292.5,239C 295.3,237.515 297.966,235.849 300.5,234C 301.784,233.316 302.951,233.483 304,234.5C 308.966,232.141 313.8,229.808 318.5,227.5C 319.086,227.709 319.586,228.043 320,228.5C 324.801,224.783 329.968,221.616 335.5,219C 336.059,218.275 336.392,217.442 336.5,216.5C 334.815,211.305 334.149,205.972 334.5,200.5 Z"/></g>
<g><path style="opacity:1" fill="#ca472c" d="M 252.5,167.5 C 254.939,172.49 256.606,177.823 257.5,183.5C 257.167,183.5 256.833,183.5 256.5,183.5C 256.19,182.262 255.69,182.262 255,183.5C 254.667,184.833 254.333,186.167 254,187.5C 252.323,185.475 251.323,183.141 251,180.5C 250.625,183 249.792,185.333 248.5,187.5C 249.246,188.736 249.579,190.07 249.5,191.5C 248.5,191.5 247.5,191.5 246.5,191.5C 245.892,196.762 244.892,201.928 243.5,207C 243.833,207.333 244.167,207.667 244.5,208C 241.069,217.363 238.069,226.863 235.5,236.5C 235.709,237.086 236.043,237.586 236.5,238C 233.372,240.433 232.039,243.433 232.5,247C 231.251,251.481 229.584,255.815 227.5,260C 227.833,260.333 228.167,260.667 228.5,261C 224.039,267.997 222.373,275.497 223.5,283.5C 220.344,283.529 218.678,285.196 218.5,288.5C 214.02,291.386 210.02,294.719 206.5,298.5C 207.216,295.402 208.716,292.736 211,290.5C 211.333,287.833 211.667,285.167 212,282.5C 212.667,281.833 213.333,281.167 214,280.5C 216.591,269.335 219.924,258.335 224,247.5C 224.501,243.49 225.001,239.49 225.5,235.5C 231.478,223.294 235.478,210.294 237.5,196.5C 239.538,188.926 242.371,181.593 246,174.5C 245.8,170.303 246.967,166.637 249.5,163.5C 250.521,164.901 251.521,166.235 252.5,167.5 Z"/></g>
<g><path style="opacity:1" fill="#faecd9" d="M 259.5,185.5 C 261.986,188.219 263.153,191.553 263,195.5C 263.249,194.376 263.749,193.376 264.5,192.5C 265.583,194.792 265.583,197.125 264.5,199.5C 264.482,201.373 264.982,201.706 266,200.5C 266.333,203.833 266.667,207.167 267,210.5C 271.23,219.496 274.396,228.829 276.5,238.5C 277.56,242.18 278.726,245.846 280,249.5C 281.011,250.337 282.178,250.67 283.5,250.5C 283.215,248.712 283.548,247.045 284.5,245.5C 285.167,247.5 285.833,249.5 286.5,251.5C 300.521,245.066 315.354,238.399 331,231.5C 331.333,231.833 331.667,232.167 332,232.5C 333.891,230.347 336.057,229.68 338.5,230.5C 339.612,225.171 339.612,219.838 338.5,214.5C 339.738,216.214 340.405,218.214 340.5,220.5C 341.54,224.849 341.54,229.182 340.5,233.5C 337.894,235.418 336.894,238.084 337.5,241.5C 330.375,241.255 324.375,243.088 319.5,247C 313.535,248.535 308.202,251.202 303.5,255C 298.158,256.425 292.991,258.258 288,260.5C 286.992,260.018 285.825,259.852 284.5,260C 283.267,258.333 281.933,256.833 280.5,255.5C 272.291,232.538 265.291,209.205 259.5,185.5 Z"/></g>
<g><path style="opacity:1" fill="#f9dcb4" d="M 340.5,220.5 C 341.167,221.5 341.833,222.5 342.5,223.5C 343.757,230.271 345.424,236.937 347.5,243.5C 337.613,247.727 327.613,251.894 317.5,256C 314.902,258.959 311.568,260.293 307.5,260C 300.779,264.027 293.779,267.527 286.5,270.5C 285.859,269.007 284.859,268.007 283.5,267.5C 281.995,263.647 280.995,259.647 280.5,255.5C 281.933,256.833 283.267,258.333 284.5,260C 285.825,259.852 286.992,260.018 288,260.5C 292.991,258.258 298.158,256.425 303.5,255C 308.202,251.202 313.535,248.535 319.5,247C 324.375,243.088 330.375,241.255 337.5,241.5C 336.894,238.084 337.894,235.418 340.5,233.5C 341.54,229.182 341.54,224.849 340.5,220.5 Z"/></g>
<g><path style="opacity:1" fill="#f09728" d="M 363.5,241.5 C 362.389,242.66 361.389,243.993 360.5,245.5C 353.844,248.36 354.011,250.693 361,252.5C 362.401,250.808 364.234,250.141 366.5,250.5C 364.087,252.887 361.42,255.054 358.5,257C 350.214,259.809 342.548,263.643 335.5,268.5C 324.129,273.521 312.795,278.521 301.5,283.5C 300.167,283.833 298.833,284.167 297.5,284.5C 298.673,282.496 300.34,280.996 302.5,280C 299.495,278.83 296.495,277.664 293.5,276.5C 281.34,280.701 269.34,285.201 257.5,290C 253.848,290.499 250.182,290.665 246.5,290.5C 246.5,291.5 246.5,292.5 246.5,293.5C 242.405,293.808 238.405,294.641 234.5,296C 225.819,299.009 217.153,302.009 208.5,305C 213.448,306.05 218.448,306.55 223.5,306.5C 223.5,305.5 223.5,304.5 223.5,303.5C 228.13,304.229 232.797,304.563 237.5,304.5C 227.606,307.576 217.606,310.243 207.5,312.5C 205.738,312.357 204.071,312.691 202.5,313.5C 201.904,309.616 202.571,305.949 204.5,302.5C 204.369,303.376 204.702,304.043 205.5,304.5C 224.213,298.761 242.547,291.928 260.5,284C 267.45,281.977 274.45,280.143 281.5,278.5C 283.03,278.36 284.03,277.693 284.5,276.5C 284.938,276.565 285.272,276.399 285.5,276C 283.963,274.89 283.297,273.39 283.5,271.5C 283.5,270.5 283.5,269.5 283.5,268.5C 284.6,270.277 285.434,272.277 286,274.5C 286.561,275.022 287.228,275.355 288,275.5C 292.019,273.405 296.186,271.739 300.5,270.5C 307.841,268.214 314.841,265.047 321.5,261C 324.5,260.667 327.5,260.333 330.5,260C 334.928,257.459 339.262,254.959 343.5,252.5C 346.957,250.378 350.623,248.711 354.5,247.5C 354.433,246.041 354.766,244.708 355.5,243.5C 358.167,242.833 360.833,242.167 363.5,241.5 Z"/></g>
<g><path style="opacity:1" fill="#fdf7e6" d="M 374.5,247.5 C 373.062,249.443 371.396,251.276 369.5,253C 371.715,253.17 373.715,253.837 375.5,255C 374.551,255.617 373.718,255.451 373,254.5C 371.667,257.167 370.333,257.167 369,254.5C 367.278,254.962 365.445,255.128 363.5,255C 363.815,256.902 363.815,258.902 363.5,261C 361.926,261.699 360.593,261.365 359.5,260C 361.271,259.465 361.604,258.631 360.5,257.5C 353.391,260.22 346.725,263.72 340.5,268C 338.866,268.494 337.199,268.66 335.5,268.5C 342.548,263.643 350.214,259.809 358.5,257C 361.42,255.054 364.087,252.887 366.5,250.5C 369.167,249.5 371.833,248.5 374.5,247.5 Z"/></g>
<g><path style="opacity:1" fill="#b84b3f" d="M 225.5,235.5 C 225.001,239.49 224.501,243.49 224,247.5C 219.924,258.335 216.591,269.335 214,280.5C 213.333,281.167 212.667,281.833 212,282.5C 211.667,285.167 211.333,287.833 211,290.5C 208.716,292.736 207.216,295.402 206.5,298.5C 206.5,298.833 206.5,299.167 206.5,299.5C 205.662,299.842 205.328,300.508 205.5,301.5C 205.5,302.167 205.167,302.5 204.5,302.5C 209.326,285.87 214.159,269.204 219,252.5C 220.707,246.528 222.874,240.861 225.5,235.5 Z"/></g>
<g><path style="opacity:1" fill="#f9d097" d="M 347.5,243.5 C 347.833,243.5 348.167,243.5 348.5,243.5C 348.67,244.822 348.337,245.989 347.5,247C 331.71,254.895 316.044,262.728 300.5,270.5C 296.186,271.739 292.019,273.405 288,275.5C 287.228,275.355 286.561,275.022 286,274.5C 285.434,272.277 284.6,270.277 283.5,268.5C 283.5,268.167 283.5,267.833 283.5,267.5C 284.859,268.007 285.859,269.007 286.5,270.5C 293.779,267.527 300.779,264.027 307.5,260C 311.568,260.293 314.902,258.959 317.5,256C 327.613,251.894 337.613,247.727 347.5,243.5 Z"/></g>
<g><path style="opacity:0.745" fill="#eda938" d="M 69.5,184.5 C 66.1714,194.874 63.6714,205.54 62,216.5C 60.1944,223.723 59.361,231.056 59.5,238.5C 58.3454,245.321 58.1787,252.321 59,259.5C 60.42,271.193 61.92,282.86 63.5,294.5C 56.0731,265.773 55.5731,236.773 62,207.5C 63.7524,199.453 66.2524,191.786 69.5,184.5 Z"/></g>
<g><path style="opacity:1" fill="#c53c2e" d="M 441.5,240.5 C 441.627,242.94 441.96,245.607 442.5,248.5C 442.067,253.562 441.067,257.228 439.5,259.5C 438,261.179 436.167,262.512 434,263.5C 433.951,266.416 432.784,267.416 430.5,266.5C 426.933,269.445 423.6,272.611 420.5,276C 418.77,277.852 417.604,277.686 417,275.5C 415.121,279.542 411.954,281.875 407.5,282.5C 406.315,283.853 404.981,285.02 403.5,286C 404.167,287 404.833,288 405.5,289C 402.301,291.364 398.968,293.53 395.5,295.5C 395.167,294.167 394.833,292.833 394.5,291.5C 390.205,293.534 388.205,297.034 388.5,302C 385.257,305.013 382.923,308.513 381.5,312.5C 380.32,310.986 379.32,309.319 378.5,307.5C 377.679,310.447 377.179,313.447 377,316.5C 373.047,313.475 371.381,309.475 372,304.5C 378.182,300.014 384.682,295.847 391.5,292C 394.002,288.667 396.668,285.501 399.5,282.5C 414.5,269.5 428.5,255.5 441.5,240.5 Z"/></g>
<g><path style="opacity:1" fill="#fef2d7" d="M 335.5,268.5 C 334.022,270.364 332.022,271.697 329.5,272.5C 330.167,273.167 330.833,273.833 331.5,274.5C 331.167,274.833 330.833,275.167 330.5,275.5C 328.568,274.48 326.568,274.313 324.5,275C 317.614,279.861 309.947,282.694 301.5,283.5C 312.795,278.521 324.129,273.521 335.5,268.5 Z"/></g>
<g><path style="opacity:1" fill="#f18b1f" d="M 284.5,276.5 C 284.03,277.693 283.03,278.36 281.5,278.5C 274.45,280.143 267.45,281.977 260.5,284C 242.547,291.928 224.213,298.761 205.5,304.5C 204.702,304.043 204.369,303.376 204.5,302.5C 205.167,302.5 205.5,302.167 205.5,301.5C 208.271,301.579 210.937,301.079 213.5,300C 233.287,289.715 253.954,281.548 275.5,275.5C 277.104,275.939 278.604,276.606 280,277.5C 281.44,276.852 282.94,276.519 284.5,276.5 Z"/></g>
<g><path style="opacity:1" fill="#fef6e4" d="M 145.5,257.5 C 143.651,264.75 141.985,272.084 140.5,279.5C 142.259,283.524 141.759,287.191 139,290.5C 138.308,289.975 137.808,289.308 137.5,288.5C 139.04,287.468 139.54,286.135 139,284.5C 138.333,285.167 137.667,285.833 137,286.5C 134.333,295.172 131.666,303.839 129,312.5C 128.617,313.056 128.117,313.389 127.5,313.5C 132.922,294.57 138.922,275.903 145.5,257.5 Z"/></g>
<g><path style="opacity:1" fill="#e79537" d="M 146.5,251.5 C 145.85,253.435 145.517,255.435 145.5,257.5C 138.922,275.903 132.922,294.57 127.5,313.5C 125.661,315.653 124.661,318.32 124.5,321.5C 123.833,322.833 123.167,324.167 122.5,325.5C 118.833,325.5 115.167,325.5 111.5,325.5C 114.625,324.521 117.958,324.187 121.5,324.5C 121.366,322.708 121.699,321.042 122.5,319.5C 123.768,317.095 124.435,314.428 124.5,311.5C 124.75,310.078 125.583,309.078 127,308.5C 127.392,305.812 127.892,303.145 128.5,300.5C 128.24,298.813 127.573,297.313 126.5,296C 127.928,293.217 129.262,290.383 130.5,287.5C 131.251,288.376 131.751,289.376 132,290.5C 132.065,285.692 133.565,281.525 136.5,278C 139.209,269.451 142.042,260.951 145,252.5C 145.383,251.944 145.883,251.611 146.5,251.5 Z"/></g>
<g><path style="opacity:1" fill="#f4a121" d="M 297.5,284.5 C 290.378,287.878 283.044,290.878 275.5,293.5C 266.609,296.129 257.942,299.129 249.5,302.5C 247.435,302.517 245.435,302.85 243.5,303.5C 241.435,303.517 239.435,303.85 237.5,304.5C 232.797,304.563 228.13,304.229 223.5,303.5C 223.5,304.5 223.5,305.5 223.5,306.5C 218.448,306.55 213.448,306.05 208.5,305C 217.153,302.009 225.819,299.009 234.5,296C 238.405,294.641 242.405,293.808 246.5,293.5C 246.5,292.5 246.5,291.5 246.5,290.5C 250.182,290.665 253.848,290.499 257.5,290C 269.34,285.201 281.34,280.701 293.5,276.5C 296.495,277.664 299.495,278.83 302.5,280C 300.34,280.996 298.673,282.496 297.5,284.5 Z"/></g>
<g><path style="opacity:1" fill="#fdecc4" d="M 275.5,293.5 C 275.389,294.117 275.056,294.617 274.5,295C 266.272,298.022 257.939,300.522 249.5,302.5C 257.942,299.129 266.609,296.129 275.5,293.5 Z"/></g>
<g><path style="opacity:1" fill="#ebb046" d="M 33.5,304.5 C 32.1667,304.5 30.8333,304.5 29.5,304.5C 28.5449,301.737 28.3782,302.737 29,307.5C 29.7922,309.587 30.9588,311.421 32.5,313C 37.5919,315.546 42.5919,318.046 47.5,320.5C 41.992,319.107 36.6587,317.107 31.5,314.5C 30.4154,312.413 28.7488,311.08 26.5,310.5C 26.0796,303.716 26.5796,297.05 28,290.5C 28.4153,295.823 30.2487,300.489 33.5,304.5 Z"/></g>
<g><path style="opacity:1" fill="#fceec8" d="M 243.5,303.5 C 232.348,309.271 220.348,312.271 207.5,312.5C 217.606,310.243 227.606,307.576 237.5,304.5C 239.435,303.85 241.435,303.517 243.5,303.5 Z"/></g>
<g><path style="opacity:1" fill="#e86424" d="M 439.5,271.5 C 438.01,280.803 436.51,290.137 435,299.5C 434.676,301.569 433.842,301.902 432.5,300.5C 431.376,301.914 430.376,303.414 429.5,305C 431.232,308.457 430.566,311.291 427.5,313.5C 426.353,316.947 425.02,320.28 423.5,323.5C 424.156,325.453 424.489,327.453 424.5,329.5C 423.5,329.5 422.5,329.5 421.5,329.5C 421.67,330.822 421.337,331.989 420.5,333C 417.888,333.639 415.554,334.806 413.5,336.5C 415.812,339.486 417.479,339.152 418.5,335.5C 418.868,341.026 416.368,345.026 411,347.5C 410.202,351.535 409.369,355.535 408.5,359.5C 405.22,364.781 401.553,369.781 397.5,374.5C 396.506,373.001 396.506,371.334 397.5,369.5C 399.29,365.388 400.29,361.222 400.5,357C 398.519,356.395 398.185,355.395 399.5,354C 396.106,346.291 393.439,338.625 391.5,331C 391.986,327.96 392.153,324.793 392,321.5C 399,313.833 406,306.167 413,298.5C 413.414,298.957 413.914,299.291 414.5,299.5C 415.838,293.932 419.172,289.766 424.5,287C 427.259,281.899 431.426,278.732 437,277.5C 437.845,275.389 438.678,273.389 439.5,271.5 Z"/></g>
<g><path style="opacity:1" fill="#bc4537" d="M 399.5,282.5 C 396.668,285.501 394.002,288.667 391.5,292C 384.682,295.847 378.182,300.014 372,304.5C 371.381,309.475 373.047,313.475 377,316.5C 377.179,313.447 377.679,310.447 378.5,307.5C 379.32,309.319 380.32,310.986 381.5,312.5C 382.227,316.224 380.894,318.891 377.5,320.5C 377.808,321.308 378.308,321.975 379,322.5C 379.667,327.833 380.333,333.167 381,338.5C 382.964,341.201 385.131,343.701 387.5,346C 386.273,347.587 386.606,348.921 388.5,350C 387.409,352.064 387.242,354.231 388,356.5C 389.465,361.227 391.131,365.893 393,370.5C 393.497,373.146 393.664,375.813 393.5,378.5C 393.5,379.833 393.5,381.167 393.5,382.5C 385.544,356.956 377.544,331.289 369.5,305.5C 369.608,304.558 369.941,303.725 370.5,303C 380.619,296.699 390.286,289.866 399.5,282.5 Z"/></g>
<g><path style="opacity:1" fill="#da5727" d="M 442.5,248.5 C 442.553,254.196 442.22,259.862 441.5,265.5C 440.833,267.5 440.167,269.5 439.5,271.5C 438.678,273.389 437.845,275.389 437,277.5C 431.426,278.732 427.259,281.899 424.5,287C 419.172,289.766 415.838,293.932 414.5,299.5C 413.914,299.291 413.414,298.957 413,298.5C 406,306.167 399,313.833 392,321.5C 392.153,324.793 391.986,327.96 391.5,331C 393.439,338.625 396.106,346.291 399.5,354C 398.185,355.395 398.519,356.395 400.5,357C 400.29,361.222 399.29,365.388 397.5,369.5C 396.895,367.974 395.729,366.974 394,366.5C 393.829,361.467 393.329,356.467 392.5,351.5C 386.21,337.585 386.043,324.252 392,311.5C 394.7,308.968 397.2,306.301 399.5,303.5C 406.367,300.068 412.033,295.234 416.5,289C 418.087,288.138 419.754,287.471 421.5,287C 424.325,283.175 427.492,279.675 431,276.5C 431.333,275.5 431.667,274.5 432,273.5C 434.343,271.656 436.51,269.656 438.5,267.5C 438.262,264.881 438.595,262.215 439.5,259.5C 441.067,257.228 442.067,253.562 442.5,248.5 Z"/></g>
<g><path style="opacity:1" fill="#f7a61f" d="M 33.5,304.5 C 44.1698,308.751 55.1698,311.584 66.5,313C 67.2524,312.329 67.5858,311.496 67.5,310.5C 68.9312,311.903 70.0978,313.569 71,315.5C 71.5613,314.978 72.228,314.645 73,314.5C 74.6539,316.263 76.4872,316.596 78.5,315.5C 82.7779,316.41 87.1112,317.077 91.5,317.5C 98.9719,315.528 106.639,315.028 114.5,316C 115.047,316.925 115.713,317.758 116.5,318.5C 117.167,317.167 117.833,315.833 118.5,314.5C 119.612,316.419 120.946,318.086 122.5,319.5C 121.699,321.042 121.366,322.708 121.5,324.5C 117.958,324.187 114.625,324.521 111.5,325.5C 98.8078,325.652 86.1411,325.152 73.5,324C 64.875,322.614 56.2084,321.447 47.5,320.5C 42.5919,318.046 37.5919,315.546 32.5,313C 30.9588,311.421 29.7922,309.587 29,307.5C 28.3782,302.737 28.5449,301.737 29.5,304.5C 30.8333,304.5 32.1667,304.5 33.5,304.5 Z"/></g>
<g><path style="opacity:1" fill="#f6ddbe" d="M 26.5,310.5 C 28.7488,311.08 30.4154,312.413 31.5,314.5C 30.5,314.5 29.5,314.5 28.5,314.5C 30.7148,320.337 32.7148,326.171 34.5,332C 33.944,332.383 33.6107,332.883 33.5,333.5C 31.8639,332.251 30.6972,330.584 30,328.5C 28.5121,322.551 27.3454,316.551 26.5,310.5 Z"/></g>
<g><path style="opacity:1" fill="#e5a641" d="M 47.5,320.5 C 56.2084,321.447 64.875,322.614 73.5,324C 86.1411,325.152 98.8078,325.652 111.5,325.5C 115.167,325.5 118.833,325.5 122.5,325.5C 106.342,326.496 90.0085,326.83 73.5,326.5C 64.6998,325.14 56.0331,323.14 47.5,320.5 Z"/></g>
<g><path style="opacity:1" fill="#fff4d7" d="M 124.5,321.5 C 124.838,324.157 124.171,326.49 122.5,328.5C 108.245,328.574 93.9117,328.407 79.5,328C 77.2922,327.809 75.2922,327.309 73.5,326.5C 90.0085,326.83 106.342,326.496 122.5,325.5C 123.167,324.167 123.833,322.833 124.5,321.5 Z"/></g>
<g><path style="opacity:1" fill="#e5712d" d="M 441.5,265.5 C 439.193,300.097 428.193,331.431 408.5,359.5C 409.369,355.535 410.202,351.535 411,347.5C 416.368,345.026 418.868,341.026 418.5,335.5C 417.479,339.152 415.812,339.486 413.5,336.5C 415.554,334.806 417.888,333.639 420.5,333C 421.337,331.989 421.67,330.822 421.5,329.5C 422.5,329.5 423.5,329.5 424.5,329.5C 424.489,327.453 424.156,325.453 423.5,323.5C 425.02,320.28 426.353,316.947 427.5,313.5C 430.566,311.291 431.232,308.457 429.5,305C 430.376,303.414 431.376,301.914 432.5,300.5C 433.842,301.902 434.676,301.569 435,299.5C 436.51,290.137 438.01,280.803 439.5,271.5C 440.167,269.5 440.833,267.5 441.5,265.5 Z"/></g>
<g><path style="opacity:1" fill="#ba594b" d="M 305.5,346.5 C 304.5,346.167 303.833,345.5 303.5,344.5C 303.262,342.596 302.262,341.262 300.5,340.5C 300.922,336.288 300.256,332.288 298.5,328.5C 296.604,327.534 294.604,327.201 292.5,327.5C 294.6,325.727 296.934,325.394 299.5,326.5C 301.3,333.234 303.3,339.901 305.5,346.5 Z"/></g>
<g><path style="opacity:1" fill="#ce472a" d="M 439.5,259.5 C 438.595,262.215 438.262,264.881 438.5,267.5C 436.51,269.656 434.343,271.656 432,273.5C 431.667,274.5 431.333,275.5 431,276.5C 427.492,279.675 424.325,283.175 421.5,287C 419.754,287.471 418.087,288.138 416.5,289C 412.033,295.234 406.367,300.068 399.5,303.5C 397.2,306.301 394.7,308.968 392,311.5C 386.043,324.252 386.21,337.585 392.5,351.5C 393.329,356.467 393.829,361.467 394,366.5C 395.729,366.974 396.895,367.974 397.5,369.5C 396.506,371.334 396.506,373.001 397.5,374.5C 396.5,376.167 395.167,377.5 393.5,378.5C 393.664,375.813 393.497,373.146 393,370.5C 391.131,365.893 389.465,361.227 388,356.5C 387.242,354.231 387.409,352.064 388.5,350C 386.606,348.921 386.273,347.587 387.5,346C 385.131,343.701 382.964,341.201 381,338.5C 380.333,333.167 379.667,327.833 379,322.5C 378.308,321.975 377.808,321.308 377.5,320.5C 380.894,318.891 382.227,316.224 381.5,312.5C 382.923,308.513 385.257,305.013 388.5,302C 388.205,297.034 390.205,293.534 394.5,291.5C 394.833,292.833 395.167,294.167 395.5,295.5C 398.968,293.53 402.301,291.364 405.5,289C 404.833,288 404.167,287 403.5,286C 404.981,285.02 406.315,283.853 407.5,282.5C 411.954,281.875 415.121,279.542 417,275.5C 417.604,277.686 418.77,277.852 420.5,276C 423.6,272.611 426.933,269.445 430.5,266.5C 432.784,267.416 433.951,266.416 434,263.5C 436.167,262.512 438,261.179 439.5,259.5 Z"/></g>
<g><path style="opacity:1" fill="#bc443a" d="M 292.5,327.5 C 285.686,331.388 278.353,334.221 270.5,336C 269.449,337.385 268.116,338.385 266.5,339C 269.167,339.667 269.167,340.333 266.5,341C 266.833,341.333 267.167,341.667 267.5,342C 262.511,341.174 257.511,341.341 252.5,342.5C 252.261,344.467 252.594,346.301 253.5,348C 249.979,350.428 247.145,349.928 245,346.5C 244.667,346.833 244.333,347.167 244,347.5C 243.161,346.376 241.994,345.709 240.5,345.5C 234.11,347.18 227.777,349.014 221.5,351C 224.001,352.418 223.668,353.418 220.5,354C 215.04,355.704 209.54,355.871 204,354.5C 198.076,354.404 193.076,356.404 189,360.5C 188.272,363.23 188.438,365.897 189.5,368.5C 188.077,373.695 185.41,378.028 181.5,381.5C 183.225,372.715 185.891,364.215 189.5,356C 224.489,348.836 258.822,339.336 292.5,327.5 Z"/></g>
<g><path style="opacity:1" fill="#ea6724" d="M 316.5,427.5 C 314.522,430.012 311.855,431.512 308.5,432C 305.486,432.128 302.486,432.128 299.5,432C 300.328,432.915 301.328,433.581 302.5,434C 301.667,434.167 300.833,434.333 300,434.5C 290.103,433.844 280.269,433.678 270.5,434C 274.428,435.073 278.428,436.073 282.5,437C 275.97,438.557 269.47,438.724 263,437.5C 262.833,437.833 262.667,438.167 262.5,438.5C 263.729,439.281 265.062,439.781 266.5,440C 253.5,440.667 240.5,440.667 227.5,440C 228.167,439.667 228.833,439.333 229.5,439C 221.83,438.478 214.163,437.978 206.5,437.5C 198.145,436.081 190.145,433.748 182.5,430.5C 182.833,430.5 183.167,430.5 183.5,430.5C 185.989,430.702 188.323,430.202 190.5,429C 192.411,426.457 194.411,423.957 196.5,421.5C 198.054,411.213 200.054,401.213 202.5,391.5C 203.5,391.5 204.5,391.5 205.5,391.5C 205.202,387.399 206.868,384.733 210.5,383.5C 210.33,382.178 210.663,381.011 211.5,380C 220.279,375.832 229.612,374.332 239.5,375.5C 239.33,374.178 239.663,373.011 240.5,372C 245.155,371.501 249.821,371.334 254.5,371.5C 254.33,370.178 254.663,369.011 255.5,368C 260.864,367.829 266.198,367.329 271.5,366.5C 274.408,365.422 276.908,363.755 279,361.5C 279.414,361.957 279.914,362.291 280.5,362.5C 287.154,359.827 293.82,359.494 300.5,361.5C 303.415,359.758 304.749,360.425 304.5,363.5C 301.986,363.754 299.652,364.587 297.5,366C 300.379,366.957 302.879,366.457 305,364.5C 307.692,366.212 308.026,368.212 306,370.5C 305.333,376.833 305.333,383.167 306,389.5C 307.666,388.66 307.833,389.16 306.5,391C 311.173,396.357 311.506,402.024 307.5,408C 308.623,409.044 309.956,409.71 311.5,410C 308.972,411.316 308.972,412.483 311.5,413.5C 309.159,415.545 306.826,417.545 304.5,419.5C 303.548,421.045 303.215,422.712 303.5,424.5C 305.911,424.137 307.411,425.137 308,427.5C 306.87,418.958 310.37,416.624 318.5,420.5C 317.711,422.488 316.545,422.821 315,421.5C 313.972,423.361 312.472,424.695 310.5,425.5C 309.386,426.723 309.219,428.056 310,429.5C 312.007,428.331 314.173,427.665 316.5,427.5 Z"/></g>
<g><path style="opacity:1" fill="#c54b32" d="M 82.5,360.5 C 90.4551,361.661 98.4551,362.328 106.5,362.5C 106.223,366.644 104.89,370.311 102.5,373.5C 102.435,371.304 101.768,369.304 100.5,367.5C 96.9532,367.78 93.2865,367.78 89.5,367.5C 87.8639,366.251 86.6972,364.584 86,362.5C 84.6976,361.915 83.531,361.249 82.5,360.5 Z"/></g>
<g><path style="opacity:1" fill="#db5927" d="M 303.5,344.5 C 303.833,345.5 304.5,346.167 305.5,346.5C 307.908,353.389 309.908,360.389 311.5,367.5C 310.504,367.586 309.671,367.252 309,366.5C 308.667,365.167 308.333,363.833 308,362.5C 307.586,362.957 307.086,363.291 306.5,363.5C 306.2,355.207 301.867,351.54 293.5,352.5C 286.11,354.017 278.777,355.85 271.5,358C 269.069,358.295 267.236,359.462 266,361.5C 262.108,360.983 258.275,360.983 254.5,361.5C 249.345,364.826 243.845,366.159 238,365.5C 235.828,366.585 233.828,367.919 232,369.5C 231.586,369.043 231.086,368.709 230.5,368.5C 223.909,370.197 217.409,372.197 211,374.5C 210.228,374.355 209.561,374.022 209,373.5C 208.365,374.966 207.531,376.3 206.5,377.5C 206.709,378.086 207.043,378.586 207.5,379C 203.636,380.698 200.969,383.531 199.5,387.5C 199.709,388.086 200.043,388.586 200.5,389C 198.13,394.308 196.297,399.808 195,405.5C 193.833,407.333 192.667,409.167 191.5,411C 191.957,411.414 192.291,411.914 192.5,412.5C 190.909,416.802 189.409,421.136 188,425.5C 186.975,427.687 185.475,429.354 183.5,430.5C 183.167,430.5 182.833,430.5 182.5,430.5C 181.167,430.167 179.833,429.833 178.5,429.5C 183.437,427.844 185.271,424.511 184,419.5C 185.79,414.169 187.957,409.003 190.5,404C 190.043,403.586 189.709,403.086 189.5,402.5C 191.286,398.693 192.452,394.693 193,390.5C 195.306,384.916 197.806,379.416 200.5,374C 212.214,367.234 224.88,363.234 238.5,362C 240.221,360.473 242.221,359.473 244.5,359C 255.659,356.704 266.659,354.038 277.5,351C 281.153,349.438 284.82,347.938 288.5,346.5C 289.086,346.709 289.586,347.043 290,347.5C 293.649,346.169 297.316,344.836 301,343.5C 301.902,343.743 302.735,344.077 303.5,344.5 Z"/></g>
<g><path style="opacity:1" fill="#d45b2a" d="M 89.5,367.5 C 93.2865,367.78 96.9532,367.78 100.5,367.5C 101.768,369.304 102.435,371.304 102.5,373.5C 102.101,377.116 101.101,380.45 99.5,383.5C 96.1667,378.167 92.8333,372.833 89.5,367.5 Z"/></g>
<g><path style="opacity:1" fill="#d24b29" d="M 300.5,340.5 C 302.262,341.262 303.262,342.596 303.5,344.5C 302.735,344.077 301.902,343.743 301,343.5C 297.316,344.836 293.649,346.169 290,347.5C 289.586,347.043 289.086,346.709 288.5,346.5C 284.82,347.938 281.153,349.438 277.5,351C 266.659,354.038 255.659,356.704 244.5,359C 242.221,359.473 240.221,360.473 238.5,362C 224.88,363.234 212.214,367.234 200.5,374C 197.806,379.416 195.306,384.916 193,390.5C 192.452,394.693 191.286,398.693 189.5,402.5C 189.709,403.086 190.043,403.586 190.5,404C 187.957,409.003 185.79,414.169 184,419.5C 185.271,424.511 183.437,427.844 178.5,429.5C 175.715,427.905 172.715,426.905 169.5,426.5C 169.5,426.167 169.5,425.833 169.5,425.5C 172.448,425.777 175.281,425.444 178,424.5C 182.079,411.903 185.912,399.403 189.5,387C 188.85,385.391 189.35,383.891 191,382.5C 191.494,380.866 191.66,379.199 191.5,377.5C 192.978,377.762 194.311,377.429 195.5,376.5C 196.764,373.875 197.931,371.208 199,368.5C 203.101,367.344 203.268,366.177 199.5,365C 199.833,364.667 200.167,364.333 200.5,364C 217.97,359.216 235.637,355.216 253.5,352C 255.741,350.478 258.074,349.145 260.5,348C 271.333,345.792 282,342.958 292.5,339.5C 294.335,340.192 296.168,339.858 298,338.5C 298.708,339.381 299.542,340.047 300.5,340.5 Z"/></g>
<g><path style="opacity:1" fill="#c83e2d" d="M 292.5,327.5 C 294.604,327.201 296.604,327.534 298.5,328.5C 300.256,332.288 300.922,336.288 300.5,340.5C 299.542,340.047 298.708,339.381 298,338.5C 296.168,339.858 294.335,340.192 292.5,339.5C 282,342.958 271.333,345.792 260.5,348C 258.074,349.145 255.741,350.478 253.5,352C 235.637,355.216 217.97,359.216 200.5,364C 200.167,364.333 199.833,364.667 199.5,365C 203.268,366.177 203.101,367.344 199,368.5C 197.931,371.208 196.764,373.875 195.5,376.5C 194.311,377.429 192.978,377.762 191.5,377.5C 191.66,379.199 191.494,380.866 191,382.5C 189.35,383.891 188.85,385.391 189.5,387C 185.912,399.403 182.079,411.903 178,424.5C 175.281,425.444 172.448,425.777 169.5,425.5C 170.71,419.776 172.21,414.11 174,408.5C 175.713,407.024 177.547,405.69 179.5,404.5C 179.291,403.914 178.957,403.414 178.5,403C 179.833,402.333 180.833,401.333 181.5,400C 180.338,394.219 180.338,388.386 181.5,382.5C 181.5,382.167 181.5,381.833 181.5,381.5C 185.41,378.028 188.077,373.695 189.5,368.5C 188.438,365.897 188.272,363.23 189,360.5C 193.076,356.404 198.076,354.404 204,354.5C 209.54,355.871 215.04,355.704 220.5,354C 223.668,353.418 224.001,352.418 221.5,351C 227.777,349.014 234.11,347.18 240.5,345.5C 241.994,345.709 243.161,346.376 244,347.5C 244.333,347.167 244.667,346.833 245,346.5C 247.145,349.928 249.979,350.428 253.5,348C 252.594,346.301 252.261,344.467 252.5,342.5C 257.511,341.341 262.511,341.174 267.5,342C 267.167,341.667 266.833,341.333 266.5,341C 269.167,340.333 269.167,339.667 266.5,339C 268.116,338.385 269.449,337.385 270.5,336C 278.353,334.221 285.686,331.388 292.5,327.5 Z"/></g>
<g><path style="opacity:1" fill="#e56125" d="M 311.5,367.5 C 315.355,377.909 318.688,388.576 321.5,399.5C 321.054,402.01 321.72,404.01 323.5,405.5C 323.5,405.833 323.5,406.167 323.5,406.5C 326.767,416.063 333.434,419.729 343.5,417.5C 338.641,420.169 333.641,422.669 328.5,425C 324.622,426.47 320.622,427.303 316.5,427.5C 314.173,427.665 312.007,428.331 310,429.5C 309.219,428.056 309.386,426.723 310.5,425.5C 312.472,424.695 313.972,423.361 315,421.5C 316.545,422.821 317.711,422.488 318.5,420.5C 310.37,416.624 306.87,418.958 308,427.5C 307.411,425.137 305.911,424.137 303.5,424.5C 303.215,422.712 303.548,421.045 304.5,419.5C 306.826,417.545 309.159,415.545 311.5,413.5C 308.972,412.483 308.972,411.316 311.5,410C 309.956,409.71 308.623,409.044 307.5,408C 311.506,402.024 311.173,396.357 306.5,391C 307.833,389.16 307.666,388.66 306,389.5C 305.333,383.167 305.333,376.833 306,370.5C 308.026,368.212 307.692,366.212 305,364.5C 302.879,366.457 300.379,366.957 297.5,366C 299.652,364.587 301.986,363.754 304.5,363.5C 304.749,360.425 303.415,359.758 300.5,361.5C 293.82,359.494 287.154,359.827 280.5,362.5C 279.914,362.291 279.414,361.957 279,361.5C 276.908,363.755 274.408,365.422 271.5,366.5C 266.198,367.329 260.864,367.829 255.5,368C 254.663,369.011 254.33,370.178 254.5,371.5C 249.821,371.334 245.155,371.501 240.5,372C 239.663,373.011 239.33,374.178 239.5,375.5C 229.612,374.332 220.279,375.832 211.5,380C 210.663,381.011 210.33,382.178 210.5,383.5C 206.868,384.733 205.202,387.399 205.5,391.5C 204.5,391.5 203.5,391.5 202.5,391.5C 200.054,401.213 198.054,411.213 196.5,421.5C 194.411,423.957 192.411,426.457 190.5,429C 188.323,430.202 185.989,430.702 183.5,430.5C 185.475,429.354 186.975,427.687 188,425.5C 189.409,421.136 190.909,416.802 192.5,412.5C 192.291,411.914 191.957,411.414 191.5,411C 192.667,409.167 193.833,407.333 195,405.5C 196.297,399.808 198.13,394.308 200.5,389C 200.043,388.586 199.709,388.086 199.5,387.5C 200.969,383.531 203.636,380.698 207.5,379C 207.043,378.586 206.709,378.086 206.5,377.5C 207.531,376.3 208.365,374.966 209,373.5C 209.561,374.022 210.228,374.355 211,374.5C 217.409,372.197 223.909,370.197 230.5,368.5C 231.086,368.709 231.586,369.043 232,369.5C 233.828,367.919 235.828,366.585 238,365.5C 243.845,366.159 249.345,364.826 254.5,361.5C 258.275,360.983 262.108,360.983 266,361.5C 267.236,359.462 269.069,358.295 271.5,358C 278.777,355.85 286.11,354.017 293.5,352.5C 301.867,351.54 306.2,355.207 306.5,363.5C 307.086,363.291 307.586,362.957 308,362.5C 308.333,363.833 308.667,365.167 309,366.5C 309.671,367.252 310.504,367.586 311.5,367.5 Z"/></g>
<g><path style="opacity:1" fill="#ba433a" d="M 181.5,382.5 C 180.338,388.386 180.338,394.219 181.5,400C 180.833,401.333 179.833,402.333 178.5,403C 178.957,403.414 179.291,403.914 179.5,404.5C 177.547,405.69 175.713,407.024 174,408.5C 172.21,414.11 170.71,419.776 169.5,425.5C 169.5,425.833 169.5,426.167 169.5,426.5C 168.833,426.5 168.167,426.5 167.5,426.5C 171.598,411.543 176.265,396.876 181.5,382.5 Z"/></g>
<g><path style="opacity:1" fill="#ba7161" d="M 321.5,399.5 C 322.234,400.878 322.901,402.378 323.5,404C 332.827,404.5 342.161,404.666 351.5,404.5C 342.348,405.494 333.015,405.827 323.5,405.5C 321.72,404.01 321.054,402.01 321.5,399.5 Z"/></g>
<g><path style="opacity:1" fill="#c1402e" d="M 351.5,404.5 C 357.5,404.5 363.5,404.5 369.5,404.5C 365.408,407.05 361.074,409.383 356.5,411.5C 351.539,410.585 346.539,410.585 341.5,411.5C 341.863,409.089 340.863,407.589 338.5,407C 333.511,406.501 328.511,406.334 323.5,406.5C 323.5,406.167 323.5,405.833 323.5,405.5C 333.015,405.827 342.348,405.494 351.5,404.5 Z"/></g>
<g><path style="opacity:1" fill="#d65128" d="M 323.5,406.5 C 328.511,406.334 333.511,406.501 338.5,407C 340.863,407.589 341.863,409.089 341.5,411.5C 346.539,410.585 351.539,410.585 356.5,411.5C 353.534,413.988 350.201,415.988 346.5,417.5C 345.5,417.5 344.5,417.5 343.5,417.5C 333.434,419.729 326.767,416.063 323.5,406.5 Z"/></g>
<g><path style="opacity:1" fill="#e26c2a" d="M 343.5,417.5 C 344.5,417.5 345.5,417.5 346.5,417.5C 302.296,441.757 255.629,448.424 206.5,437.5C 214.163,437.978 221.83,438.478 229.5,439C 228.833,439.333 228.167,439.667 227.5,440C 240.5,440.667 253.5,440.667 266.5,440C 265.062,439.781 263.729,439.281 262.5,438.5C 262.667,438.167 262.833,437.833 263,437.5C 269.47,438.724 275.97,438.557 282.5,437C 278.428,436.073 274.428,435.073 270.5,434C 280.269,433.678 290.103,433.844 300,434.5C 300.833,434.333 301.667,434.167 302.5,434C 301.328,433.581 300.328,432.915 299.5,432C 302.486,432.128 305.486,432.128 308.5,432C 311.855,431.512 314.522,430.012 316.5,427.5C 320.622,427.303 324.622,426.47 328.5,425C 333.641,422.669 338.641,420.169 343.5,417.5 Z"/></g>
</svg>
